<?xml version="1.0" encoding="utf-8"?>
<!-- Generator: Adobe Illustrator 16.2.1, SVG Export Plug-In . SVG Version: 6.00 Build 0)  -->
<!DOCTYPE svg PUBLIC "-//W3C//DTD SVG 1.1//EN" "http://www.w3.org/Graphics/SVG/1.1/DTD/svg11.dtd">
<svg version="1.1" id="Isolation_Mode" xmlns="http://www.w3.org/2000/svg" xmlns:xlink="http://www.w3.org/1999/xlink" x="0px"
	 y="0px" width="99.217px" height="99.054px" viewBox="0 0 99.217 99.054" enable-background="new 0 0 99.217 99.054"
	 xml:space="preserve">
<g>
	<path fill="#FFFFFF" d="M1.628,32.892h20.573v66.162H1.628V32.892z M11.918,0c6.576,0,11.915,5.339,11.915,11.918
		c0,6.582-5.339,11.927-11.915,11.927C5.326,23.845,0,18.5,0,11.918C0,5.339,5.326,0,11.918,0"/>
	<path fill="#FFFFFF" d="M35.101,32.892h19.721v9.037h0.281c2.749-5.203,9.454-10.684,19.456-10.684
		c20.811,0,24.658,13.698,24.658,31.52v36.29H78.674V66.879c0-7.674-0.148-17.547-10.687-17.547
		c-10.704,0-12.334,8.362-12.334,16.992v32.73H35.101V32.892z"/>
</g>
</svg>
